<mxfile host="app.diagrams.net" agent="Mozilla/5.0 (Windows NT 10.0; Win64; x64) AppleWebKit/537.36 (KHTML, like Gecko) Chrome/140.0.0.0 Safari/537.36" version="28.2.0">
  <diagram name="Página-2" id="ZmiVusArg0eAbAJM250A">
    <mxGraphModel dx="1185" dy="619" grid="1" gridSize="10" guides="1" tooltips="1" connect="1" arrows="1" fold="1" page="1" pageScale="1" pageWidth="827" pageHeight="1169" math="0" shadow="0">
      <root>
        <mxCell id="0" />
        <mxCell id="1" parent="0" />
        <mxCell id="7BSrLb9yEdah-kjwerx5-308" value="ADM&lt;div&gt;&lt;br&gt;&lt;/div&gt;" style="shape=umlActor;verticalLabelPosition=bottom;verticalAlign=top;html=1;outlineConnect=0;" vertex="1" parent="1">
          <mxGeometry x="30" y="280" width="30" height="60" as="geometry" />
        </mxCell>
        <mxCell id="7BSrLb9yEdah-kjwerx5-310" style="edgeStyle=orthogonalEdgeStyle;rounded=0;orthogonalLoop=1;jettySize=auto;html=1;exitX=0.5;exitY=0.5;exitDx=0;exitDy=0;exitPerimeter=0;entryX=0;entryY=1;entryDx=0;entryDy=0;" edge="1" parent="1" source="7BSrLb9yEdah-kjwerx5-308" target="7BSrLb9yEdah-kjwerx5-328">
          <mxGeometry relative="1" as="geometry">
            <mxPoint x="-10" y="354" as="sourcePoint" />
            <mxPoint x="250" y="340" as="targetPoint" />
          </mxGeometry>
        </mxCell>
        <mxCell id="7BSrLb9yEdah-kjwerx5-327" value="CASO DE USO 5&lt;div&gt;&lt;br&gt;&lt;/div&gt;" style="rounded=0;whiteSpace=wrap;html=1;" vertex="1" parent="1">
          <mxGeometry x="230" y="60" width="276" height="60" as="geometry" />
        </mxCell>
        <mxCell id="7BSrLb9yEdah-kjwerx5-328" value="Acessar &quot;Bloqueios&quot;" style="ellipse;whiteSpace=wrap;html=1;" vertex="1" parent="1">
          <mxGeometry x="270" y="240" width="120" height="80" as="geometry" />
        </mxCell>
        <mxCell id="7BSrLb9yEdah-kjwerx5-329" value="&amp;lt;&amp;lt;extend&amp;gt;&amp;gt;" style="html=1;verticalAlign=bottom;labelBackgroundColor=none;endArrow=open;endFill=0;dashed=1;rounded=0;exitX=0.8;exitY=0.888;exitDx=0;exitDy=0;exitPerimeter=0;entryX=0;entryY=0.5;entryDx=0;entryDy=0;" edge="1" parent="1" source="7BSrLb9yEdah-kjwerx5-328" target="7BSrLb9yEdah-kjwerx5-330">
          <mxGeometry width="160" relative="1" as="geometry">
            <mxPoint x="310" y="460" as="sourcePoint" />
            <mxPoint x="470" y="400" as="targetPoint" />
          </mxGeometry>
        </mxCell>
        <mxCell id="7BSrLb9yEdah-kjwerx5-330" value="Adicionar Bloqueio&lt;div&gt;&lt;br&gt;&lt;/div&gt;" style="ellipse;whiteSpace=wrap;html=1;" vertex="1" parent="1">
          <mxGeometry x="540" y="350" width="120" height="80" as="geometry" />
        </mxCell>
        <mxCell id="7BSrLb9yEdah-kjwerx5-332" value="Remover bloqueio&lt;div&gt;&lt;br&gt;&lt;/div&gt;" style="ellipse;whiteSpace=wrap;html=1;" vertex="1" parent="1">
          <mxGeometry x="540" y="180" width="120" height="80" as="geometry" />
        </mxCell>
        <mxCell id="7BSrLb9yEdah-kjwerx5-333" value="&amp;lt;&amp;lt;extend&amp;gt;&amp;gt;" style="html=1;verticalAlign=bottom;labelBackgroundColor=none;endArrow=open;endFill=0;dashed=1;rounded=0;entryX=0;entryY=1;entryDx=0;entryDy=0;" edge="1" parent="1" source="7BSrLb9yEdah-kjwerx5-328" target="7BSrLb9yEdah-kjwerx5-332">
          <mxGeometry width="160" relative="1" as="geometry">
            <mxPoint x="470" y="220" as="sourcePoint" />
            <mxPoint x="584" y="309" as="targetPoint" />
          </mxGeometry>
        </mxCell>
        <mxCell id="7BSrLb9yEdah-kjwerx5-334" value="&amp;lt;&amp;lt;include&amp;gt;&amp;gt;" style="html=1;verticalAlign=bottom;labelBackgroundColor=none;endArrow=open;endFill=0;dashed=1;rounded=0;exitX=1;exitY=0.5;exitDx=0;exitDy=0;entryX=0;entryY=0.5;entryDx=0;entryDy=0;" edge="1" parent="1" source="7BSrLb9yEdah-kjwerx5-332" target="7BSrLb9yEdah-kjwerx5-335">
          <mxGeometry width="160" relative="1" as="geometry">
            <mxPoint x="780" y="259" as="sourcePoint" />
            <mxPoint x="820" y="210" as="targetPoint" />
          </mxGeometry>
        </mxCell>
        <mxCell id="7BSrLb9yEdah-kjwerx5-335" value="Confirmacao" style="ellipse;whiteSpace=wrap;html=1;" vertex="1" parent="1">
          <mxGeometry x="820" y="180" width="120" height="80" as="geometry" />
        </mxCell>
        <mxCell id="7BSrLb9yEdah-kjwerx5-336" value="Escolher informações" style="ellipse;whiteSpace=wrap;html=1;" vertex="1" parent="1">
          <mxGeometry x="820" y="350" width="120" height="80" as="geometry" />
        </mxCell>
        <mxCell id="7BSrLb9yEdah-kjwerx5-337" value="&amp;lt;&amp;lt;include&amp;gt;&amp;gt;" style="html=1;verticalAlign=bottom;labelBackgroundColor=none;endArrow=open;endFill=0;dashed=1;rounded=0;exitX=1;exitY=0.5;exitDx=0;exitDy=0;entryX=0;entryY=0.5;entryDx=0;entryDy=0;" edge="1" parent="1" source="7BSrLb9yEdah-kjwerx5-330" target="7BSrLb9yEdah-kjwerx5-336">
          <mxGeometry width="160" relative="1" as="geometry">
            <mxPoint x="680" y="390" as="sourcePoint" />
            <mxPoint x="890" y="390" as="targetPoint" />
          </mxGeometry>
        </mxCell>
      </root>
    </mxGraphModel>
  </diagram>
</mxfile>
